<?xml version="1.0" encoding="utf-8"?>
<!-- Generator: Adobe Illustrator 19.0.0, SVG Export Plug-In . SVG Version: 6.00 Build 0)  -->
<svg version="1.1" id="Capa_1" xmlns="http://www.w3.org/2000/svg" xmlns:xlink="http://www.w3.org/1999/xlink" x="0px" y="0px"
	 viewBox="0 0 23.7 20" style="enable-background:new 0 0 23.7 20;" xml:space="preserve">
<style type="text/css">
	.st0{fill:#272933;}
</style>
<g id="XMLID_45_">
	<path id="XMLID_46_" class="st0" d="M3,9V0.7h3c2.3,0,3,1.8,3,4.1C9,7,8.4,9,6,9H3z M6,1.4H3.8v7H6c1.8,0,2.2-1.8,2.2-3.6
		C8.2,2.9,7.8,1.4,6,1.4z"/>
</g>
<g id="XMLID_1_">
	<path id="XMLID_49_" class="st0" d="M5.3,19.7C4.7,19.8,3.8,20,3,20c-2.5,0-3-1.5-3-4.3c0-2.7,0.5-4.3,3-4.3c0.8,0,1.7,0.1,2.3,0.3
		l0,0.6c-0.5-0.1-1.5-0.2-2.2-0.2c-2,0-2.3,1.3-2.3,3.6c0,2.4,0.3,3.6,2.3,3.6c0.7,0,1.6-0.1,2.1-0.2L5.3,19.7z"/>
	<path id="XMLID_51_" class="st0" d="M11.3,16.8c0,2.3-0.5,3.2-2.5,3.2c-2,0-2.5-0.9-2.5-3.2c0-2.1,0.7-3,2.5-3
		C10.7,13.7,11.3,14.6,11.3,16.8z M10.6,16.8c0-1.8-0.4-2.4-1.8-2.4C7.4,14.4,7,15,7,16.8c0,1.8,0.2,2.6,1.8,2.6
		C10.4,19.3,10.6,18.6,10.6,16.8z"/>
	<path id="XMLID_54_" class="st0" d="M17.4,19.9h-0.7v-0.4c0,0-0.9,0.6-1.9,0.6c-1,0-2.1-0.3-2.1-3c0-2.1,0.6-3.2,2.5-3.2
		c0.5,0,1.3,0.1,1.5,0.2v-2.7h0.7V19.9z M16.6,18.8v-4.3c-0.2,0-1-0.1-1.5-0.1c-1.4,0-1.8,0.9-1.8,2.6c0,2.1,0.7,2.4,1.4,2.4
		C15.7,19.3,16.6,18.8,16.6,18.8z"/>
	<path id="XMLID_57_" class="st0" d="M23.5,19.2l0,0.6c0,0-1.4,0.2-2.3,0.2c-1.8,0-2.3-1.1-2.3-3.1c0-2.3,1-3.1,2.5-3.1
		c1.5,0,2.4,0.8,2.4,2.8l0,0.6h-4.1c0,1.4,0.4,2.2,1.7,2.2C22.2,19.3,23.5,19.2,23.5,19.2z M23,16.6c0-1.6-0.5-2.2-1.6-2.2
		c-1.1,0-1.7,0.6-1.7,2.2H23z"/>
</g>
<path id="XMLID_4_" class="st0" d="M20.6,5.4c0,0.1,0,0.2-0.1,0.3c-0.1,0.1-0.2,0.1-0.3,0.1h-1.3c0,0.7-0.1,1.3-0.4,1.7l1.2,1.2
	c0.1,0.1,0.1,0.2,0.1,0.3s0,0.2-0.1,0.3c-0.1,0.1-0.2,0.1-0.3,0.1s-0.2,0-0.3-0.1L18,8.1c0,0,0,0-0.1,0.1c0,0-0.1,0.1-0.3,0.2
	s-0.3,0.2-0.4,0.2c-0.1,0.1-0.3,0.1-0.5,0.2c-0.2,0.1-0.4,0.1-0.6,0.1V3.4h-0.8v5.4c-0.2,0-0.4,0-0.6-0.1c-0.2-0.1-0.4-0.1-0.5-0.2
	S14,8.4,13.9,8.3c-0.1-0.1-0.2-0.1-0.3-0.2L13.6,8l-1.1,1.2c-0.1,0.1-0.2,0.1-0.3,0.1c-0.1,0-0.2,0-0.3-0.1
	c-0.1-0.1-0.1-0.2-0.1-0.3c0-0.1,0-0.2,0.1-0.3l1.2-1.4c-0.2-0.5-0.3-1-0.3-1.6h-1.3c-0.1,0-0.2,0-0.3-0.1C11.1,5.5,11,5.5,11,5.4
	c0-0.1,0-0.2,0.1-0.3C11.2,5,11.3,5,11.4,5h1.3V3.2l-1-1c-0.1-0.1-0.1-0.2-0.1-0.3s0-0.2,0.1-0.3c0.1-0.1,0.2-0.1,0.3-0.1
	s0.2,0,0.3,0.1l1,1h5l1-1c0.1-0.1,0.2-0.1,0.3-0.1c0.1,0,0.2,0,0.3,0.1C20,1.7,20,1.8,20,1.9s0,0.2-0.1,0.3l-1,1V5h1.3
	c0.1,0,0.2,0,0.3,0.1C20.6,5.2,20.6,5.2,20.6,5.4L20.6,5.4z M17.7,1.9h-3.8c0-0.5,0.2-1,0.6-1.4S15.3,0,15.8,0c0.5,0,1,0.2,1.4,0.6
	S17.7,1.4,17.7,1.9L17.7,1.9z"/>
</svg>
