<?xml version="1.0" encoding="utf-8"?>
<!-- Generator: Adobe Illustrator 19.0.0, SVG Export Plug-In . SVG Version: 6.00 Build 0)  -->
<svg version="1.1" id="Capa_1" xmlns="http://www.w3.org/2000/svg" xmlns:xlink="http://www.w3.org/1999/xlink" x="0px" y="0px"
	 viewBox="0 0 51 11.5" style="enable-background:new 0 0 51 11.5;" xml:space="preserve">
<style type="text/css">
	.st0{fill:#272933;}
</style>
<g id="XMLID_28_">
	<path id="XMLID_29_" class="st0" d="M0,8.7V0.3h3c2.3,0,3,1.8,3,4.1c0,2.3-0.6,4.3-3,4.3H0z M3,1H0.7v7H3c1.8,0,2.2-1.8,2.2-3.6
		C5.2,2.6,4.8,1,3,1z"/>
	<path id="XMLID_32_" class="st0" d="M10.7,0.3c1.6,0,2.5,0.6,2.5,2.1c0,1.1-0.4,1.7-1.1,1.9c0.7,0.2,1.4,0.7,1.4,2
		c0,1.8-1,2.3-2.6,2.3H7.8V0.3H10.7z M8.5,1v3.1h2.3c1.1,0,1.6-0.5,1.6-1.6c0-1-0.6-1.5-1.7-1.5H8.5z M8.5,4.7V8h2.4
		c1.1,0,1.8-0.4,1.8-1.7c0-1.5-1.3-1.6-1.9-1.6H8.5z"/>
	<path id="XMLID_36_" class="st0" d="M19.5,2.7v6h-0.7V8.2c0,0-0.9,0.6-1.8,0.6c-1.7,0-2-0.7-2-3V2.7h0.7v3.1c0,1.8,0.2,2.4,1.4,2.4
		c0.9,0,1.8-0.5,1.8-0.5v-5H19.5z"/>
	<path id="XMLID_38_" class="st0" d="M21,9.7c0-0.7,0.3-1,1-1.5c-0.2-0.1-0.3-0.4-0.3-0.8c0-0.2,0.4-0.9,0.4-0.9
		c-0.5-0.2-1-0.7-1-1.8c0-1.5,0.9-2,2.2-2c0.6,0,1.3,0.2,1.3,0.2l1.7,0v0.6l-1.2,0c0.3,0.3,0.4,0.6,0.4,1.3c0,1.5-0.8,2-2.3,2
		c-0.1,0-0.5,0-0.6,0c0,0-0.2,0.6-0.2,0.7c0,0.5,0.1,0.6,1.5,0.6c1.6,0,2.2,0.3,2.2,1.7c0,1.3-0.9,1.9-2.6,1.9
		C21.6,11.5,21,11,21,9.7z M22.5,8.5c-0.6,0.4-0.8,0.6-0.8,1.2c0,0.9,0.3,1.3,1.8,1.3c1.3,0,1.9-0.4,1.9-1.2c0-1-0.4-1.1-1.6-1.1
		C23.4,8.5,22.5,8.5,22.5,8.5z M24.8,4.6c0-1-0.4-1.4-1.5-1.4c-1,0-1.4,0.4-1.4,1.4c0,1,0.4,1.4,1.4,1.4C24.4,6,24.8,5.6,24.8,4.6z"
		/>
	<path id="XMLID_42_" class="st0" d="M32.5,8.5c-0.6,0.1-1.5,0.3-2.3,0.3c-2.5,0-3-1.5-3-4.3c0-2.7,0.5-4.3,3-4.3
		c0.8,0,1.7,0.1,2.3,0.3l0,0.6C32,1,31,0.9,30.3,0.9c-2,0-2.3,1.3-2.3,3.6c0,2.4,0.3,3.6,2.3,3.6c0.7,0,1.6-0.1,2.1-0.2L32.5,8.5z"
		/>
	<path id="XMLID_44_" class="st0" d="M38.6,5.6c0,2.3-0.5,3.2-2.5,3.2c-2,0-2.5-0.9-2.5-3.2c0-2.1,0.7-3,2.5-3
		C37.9,2.5,38.6,3.5,38.6,5.6z M37.9,5.6c0-1.8-0.4-2.4-1.8-2.4c-1.4,0-1.8,0.6-1.8,2.4c0,1.8,0.2,2.6,1.8,2.6
		C37.6,8.1,37.9,7.4,37.9,5.6z"/>
	<path id="XMLID_47_" class="st0" d="M44.6,8.7h-0.7V8.2c0,0-0.9,0.6-1.9,0.6c-1,0-2.1-0.3-2.1-3c0-2.1,0.6-3.2,2.5-3.2
		c0.5,0,1.3,0.1,1.5,0.2V0h0.7V8.7z M43.9,7.6V3.3c-0.2,0-1-0.1-1.5-0.1c-1.4,0-1.8,0.9-1.8,2.6c0,2.1,0.7,2.4,1.4,2.4
		C43,8.1,43.9,7.6,43.9,7.6z"/>
	<path id="XMLID_50_" class="st0" d="M50.7,8l0,0.6c0,0-1.4,0.2-2.3,0.2c-1.8,0-2.3-1.1-2.3-3.1c0-2.3,1-3.1,2.5-3.1
		c1.5,0,2.4,0.8,2.4,2.8L51,6h-4.1c0,1.4,0.4,2.2,1.7,2.2C49.4,8.1,50.7,8,50.7,8z M50.3,5.4c0-1.6-0.5-2.2-1.6-2.2
		c-1.1,0-1.7,0.6-1.7,2.2H50.3z"/>
</g>
</svg>
