<?xml version="1.0" encoding="utf-8"?>
<!-- Generator: Adobe Illustrator 19.0.0, SVG Export Plug-In . SVG Version: 6.00 Build 0)  -->
<svg version="1.1" id="Capa_1" xmlns="http://www.w3.org/2000/svg" xmlns:xlink="http://www.w3.org/1999/xlink" x="0px" y="0px"
	 viewBox="0 0 65 49.9" style="enable-background:new 0 0 65 49.9;" xml:space="preserve">
<g id="XMLID_158_">
	<path id="XMLID_159_" d="M0,1.7L10.7,0v11.2h12.9v8.9H10.7v13.3c0,2.3,0.4,4.1,1.2,5.4c0.8,1.3,2.4,2,4.8,2c1.2,0,2.3-0.1,3.6-0.3
		c1.2-0.2,2.3-0.5,3.3-0.9l1.5,8.4c-1.3,0.5-2.7,1-4.3,1.4c-1.6,0.4-3.5,0.6-5.8,0.6c-2.9,0-5.4-0.4-7.3-1.2
		c-1.9-0.8-3.5-1.9-4.6-3.3c-1.2-1.4-2-3.1-2.4-5.1C0.2,38.2,0,36,0,33.6V1.7z"/>
	<path id="XMLID_161_" d="M32.3,12.5c1.8-0.5,4.2-1,7.1-1.5c2.9-0.5,5.9-0.7,9.1-0.7c3.2,0,5.9,0.4,8,1.3c2.1,0.8,3.8,2,5.1,3.6
		c1.2,1.5,2.1,3.4,2.7,5.5c0.5,2.1,0.8,4.5,0.8,7.1V49H54.3V28.9c0-3.5-0.5-5.9-1.4-7.3c-0.9-1.4-2.6-2.2-5.1-2.2
		c-0.8,0-1.6,0-2.4,0.1c-0.9,0.1-1.6,0.2-2.3,0.3V49H32.3V12.5z"/>
</g>
</svg>
