<?xml version="1.0" encoding="utf-8"?>
<!-- Generator: Adobe Illustrator 19.0.0, SVG Export Plug-In . SVG Version: 6.00 Build 0)  -->
<svg version="1.1" id="Capa_1" xmlns="http://www.w3.org/2000/svg" xmlns:xlink="http://www.w3.org/1999/xlink" x="0px" y="0px"
	 viewBox="0 0 30.7 24" style="enable-background:new 0 0 30.7 24;" xml:space="preserve">
<style type="text/css">
	.st0{fill:#272B33;}
</style>
<g id="XMLID_262_">
	<path id="XMLID_263_" class="st0" d="M0,9.7V0h3.5C6.2,0,7,2.1,7,4.7c0,2.7-0.8,5-3.5,5H0z M3.5,0.8H0.9V9h2.7c2,0,2.6-2.1,2.6-4.2
		C6.1,2.6,5.6,0.8,3.5,0.8z"/>
	<path id="XMLID_266_" class="st0" d="M12.5,0c1.9,0,2.9,0.8,2.9,2.5c0,1.3-0.5,1.9-1.3,2.3C14.9,5,15.7,5.6,15.7,7
		c0,2.1-1.2,2.7-3,2.7H9V0H12.5z M9.9,0.8v3.6h2.7c1.3,0,1.9-0.6,1.9-1.9c0-1.2-0.7-1.7-2-1.7H9.9z M9.9,5.2V9h2.8
		c1.3,0,2.1-0.4,2.1-2c0-1.7-1.5-1.8-2.2-1.8H9.9z"/>
	<path id="XMLID_270_" class="st0" d="M22.8,2.7v7h-0.8V9.2c0,0-1.1,0.7-2.2,0.7c-1.9,0-2.3-0.9-2.3-3.5V2.7h0.8v3.6
		c0,2.1,0.2,2.7,1.6,2.7c1.1,0,2.1-0.6,2.1-0.6V2.7H22.8z"/>
	<path id="XMLID_272_" class="st0" d="M24.6,10.9c0-0.9,0.4-1.2,1.1-1.8c-0.2-0.2-0.4-0.5-0.4-1c0-0.2,0.4-1.1,0.4-1.1
		c-0.6-0.3-1.1-0.8-1.1-2.1c0-1.7,1-2.4,2.5-2.4c0.7,0,1.5,0.2,1.5,0.2l2,0v0.7l-1.4,0c0.3,0.3,0.5,0.7,0.5,1.5
		c0,1.8-0.9,2.3-2.6,2.3c-0.1,0-0.6,0-0.7-0.1c0,0-0.3,0.7-0.3,0.9c0,0.6,0.1,0.7,1.8,0.7c1.9,0,2.6,0.3,2.6,2
		c0,1.6-1.1,2.2-3.1,2.2C25.2,13.1,24.6,12.5,24.6,10.9z M26.3,9.5c-0.7,0.5-0.9,0.7-0.9,1.3c0,1.1,0.4,1.5,2.1,1.5
		c1.5,0,2.2-0.4,2.2-1.5c0-1.2-0.5-1.3-1.8-1.3C27.3,9.6,26.3,9.5,26.3,9.5z M28.9,5c0-1.2-0.5-1.7-1.8-1.7c-1.2,0-1.7,0.5-1.7,1.7
		c0,1.2,0.5,1.6,1.7,1.6C28.5,6.6,28.9,6.2,28.9,5z"/>
	<path id="XMLID_276_" class="st0" d="M6.8,23.7C6.1,23.9,4.9,24,3.9,24C0.7,24,0,22.1,0,18.7c0-3.4,0.6-5.4,3.9-5.4
		c1.1,0,2.2,0.2,2.9,0.3l0,0.8c-0.7-0.1-1.9-0.3-2.8-0.3c-2.6,0-3,1.6-3,4.6c0,2.9,0.4,4.5,3,4.5c0.9,0,2-0.1,2.8-0.3L6.8,23.7z"/>
	<path id="XMLID_278_" class="st0" d="M14.6,20c0,2.8-0.7,4-3.2,4c-2.6,0-3.3-1.2-3.3-4c0-2.7,0.9-3.8,3.3-3.8
		C13.8,16.2,14.6,17.4,14.6,20z M13.7,20c0-2.3-0.5-3-2.3-3c-1.8,0-2.3,0.7-2.3,3c0,2.3,0.3,3.2,2.3,3.2
		C13.4,23.2,13.7,22.3,13.7,20z"/>
	<path id="XMLID_281_" class="st0" d="M22.5,23.9h-0.9v-0.6c0,0-1.2,0.7-2.5,0.7c-1.3,0-2.7-0.4-2.7-3.8c0-2.6,0.8-4,3.3-4
		c0.7,0,1.7,0.2,2,0.2v-3.4h0.9V23.9z M21.5,22.6v-5.4c-0.3,0-1.3-0.2-1.9-0.2c-1.8,0-2.3,1.1-2.3,3.2c0,2.7,1,3,1.9,3
		C20.3,23.2,21.5,22.6,21.5,22.6z"/>
	<path id="XMLID_284_" class="st0" d="M30.4,23.1l0,0.7c0,0-1.8,0.2-3,0.2c-2.3,0-3-1.4-3-3.9c0-2.9,1.3-3.9,3.2-3.9
		c2,0,3.1,1,3.1,3.6l0,0.7h-5.3c0,1.8,0.5,2.7,2.2,2.7C28.7,23.2,30.4,23.1,30.4,23.1z M29.7,19.8c0-2-0.7-2.7-2.1-2.7
		c-1.4,0-2.2,0.8-2.2,2.7H29.7z"/>
</g>
</svg>
