<?xml version="1.0" encoding="utf-8"?>
<!-- Generator: Adobe Illustrator 19.0.0, SVG Export Plug-In . SVG Version: 6.00 Build 0)  -->
<svg version="1.1" id="Capa_1" xmlns="http://www.w3.org/2000/svg" xmlns:xlink="http://www.w3.org/1999/xlink" x="0px" y="0px"
	 viewBox="0 0 231.2 207.5" style="enable-background:new 0 0 231.2 207.5;" xml:space="preserve">
<style type="text/css">
	.st0{fill:#333333;}
</style>
<path id="XMLID_4_" class="st0" d="M202.7,114.2c0,1.9-0.7,3.5-2.1,4.9c-1.4,1.4-3,2.1-4.9,2.1h-24.4c0,12.4-2.4,22.9-7.3,31.6
	l22.6,22.7c1.4,1.4,2.1,3,2.1,4.9c0,1.9-0.7,3.5-2.1,4.9c-1.3,1.4-2.9,2.1-4.9,2.1c-2,0-3.6-0.7-4.9-2.1l-21.6-21.4
	c-0.4,0.4-0.9,0.8-1.6,1.4c-0.7,0.6-2.3,1.6-4.6,3.1c-2.3,1.5-4.7,2.8-7.1,4c-2.4,1.2-5.4,2.2-8.9,3.2c-3.6,0.9-7.1,1.4-10.6,1.4
	V79.4h-13.9v97.5c-3.7,0-7.4-0.5-11.1-1.5c-3.7-1-6.8-2.2-9.5-3.6c-2.6-1.4-5-2.8-7.2-4.2c-2.1-1.4-3.7-2.6-4.7-3.5l-1.6-1.5
	l-19.9,22.5c-1.5,1.5-3.2,2.3-5.2,2.3c-1.7,0-3.3-0.6-4.7-1.7c-1.4-1.3-2.1-2.9-2.2-4.8c-0.1-1.9,0.5-3.6,1.7-5.1l22-24.7
	c-4.2-8.3-6.3-18.2-6.3-29.8H35.5c-1.9,0-3.5-0.7-4.9-2.1c-1.4-1.4-2.1-3-2.1-4.9c0-1.9,0.7-3.5,2.1-4.9c1.4-1.4,3-2.1,4.9-2.1h24.4
	v-32L41,56.4c-1.4-1.4-2.1-3-2.1-4.9s0.7-3.5,2.1-4.9c1.4-1.4,3-2.1,4.9-2.1c1.9,0,3.5,0.7,4.9,2.1l18.8,18.8h91.9l18.8-18.8
	c1.4-1.4,3-2.1,4.9-2.1c1.9,0,3.5,0.7,4.9,2.1c1.4,1.4,2.1,3,2.1,4.9s-0.7,3.5-2.1,4.9l-18.8,18.8v32h24.4c1.9,0,3.5,0.7,4.9,2.1
	C202,110.7,202.7,112.3,202.7,114.2L202.7,114.2z M150.4,51.5H80.8c0-9.7,3.4-17.9,10.2-24.7s15-10.2,24.7-10.2
	c9.7,0,17.9,3.4,24.7,10.2C147,33.7,150.4,41.9,150.4,51.5L150.4,51.5z"/>
<g id="XMLID_2_">
	<path id="XMLID_9_" class="st0" d="M0,207.5V0.3h47.6v14.3H17.7v178.6h29.9v14.3H0z"/>
</g>
<g id="XMLID_3_">
	<g id="XMLID_60_">
		<path id="XMLID_61_" class="st0" d="M231.2,0v207.5h-47.6v-14.3h29.9V14.3h-29.9V0H231.2z"/>
	</g>
</g>
</svg>
